<svg width="800" height="600" viewBox="0 0 800 600" fill="none" xmlns="http://www.w3.org/2000/svg">
  <!-- Background Elements -->
  <circle cx="400" cy="300" r="250" fill="url(#gradient1)" opacity="0.1"/>
  <circle cx="400" cy="300" r="200" fill="url(#gradient2)" opacity="0.1"/>
  
  <!-- Document -->
  <rect x="250" y="150" width="300" height="400" rx="8" fill="white" stroke="#E2E8F0" stroke-width="2"/>
  <rect x="280" y="200" width="240" height="20" rx="4" fill="#EDE9FE"/>
  <rect x="280" y="240" width="180" height="20" rx="4" fill="#EDE9FE"/>
  <rect x="280" y="280" width="240" height="20" rx="4" fill="#EDE9FE"/>
  <rect x="280" y="320" width="200" height="20" rx="4" fill="#EDE9FE"/>
  
  <!-- Signature Area -->
  <rect x="280" y="400" width="240" height="80" rx="4" fill="#F5F3FF" stroke="#7C3AED" stroke-width="2" stroke-dasharray="4 4"/>
  <path d="M300 440 C320 420, 340 460, 360 440 S400 420, 420 440" stroke="#7C3AED" stroke-width="2" fill="none"/>
  
  <!-- Blockchain Elements -->
  <g transform="translate(500,200) rotate(15)">
    <rect width="60" height="60" rx="8" fill="#7C3AED" opacity="0.2"/>
    <path d="M20 30h20M30 20v20" stroke="#7C3AED" stroke-width="2"/>
  </g>
  <g transform="translate(180,350) rotate(-15)">
    <rect width="60" height="60" rx="8" fill="#EC4899" opacity="0.2"/>
    <circle cx="30" cy="30" r="15" stroke="#EC4899" stroke-width="2" fill="none"/>
  </g>
  
  <!-- Connecting Lines -->
  <path d="M200 300 C250 300, 300 350, 350 300" stroke="#7C3AED" stroke-width="1" stroke-dasharray="4 4"/>
  <path d="M450 300 C500 300, 550 250, 600 300" stroke="#EC4899" stroke-width="1" stroke-dasharray="4 4"/>
  
  <!-- Gradients -->
  <defs>
    <linearGradient id="gradient1" x1="0" y1="0" x2="800" y2="600" gradientUnits="userSpaceOnUse">
      <stop offset="0%" stop-color="#7C3AED"/>
      <stop offset="100%" stop-color="#EC4899"/>
    </linearGradient>
    <linearGradient id="gradient2" x1="800" y1="0" x2="0" y2="600" gradientUnits="userSpaceOnUse">
      <stop offset="0%" stop-color="#EC4899"/>
      <stop offset="100%" stop-color="#7C3AED"/>
    </linearGradient>
  </defs>
</svg> 