<?xml version="1.0" encoding="utf-8"?>
<svg xmlns="http://www.w3.org/2000/svg" viewBox="0 0 507.83 470.86">
  <defs>
    <style>.cls-1{fill:#e17726;stroke:#e17726;}.cls-1,.cls-2,.cls-3,.cls-4,.cls-5,.cls-6,.cls-7{stroke-linecap:round;stroke-linejoin:round;}.cls-2{fill:#e27625;stroke:#e27625;}.cls-3{fill:#d5bfb2;stroke:#d5bfb2;}.cls-4{fill:#233447;stroke:#233447;}.cls-5{fill:#cc6228;stroke:#cc6228;}.cls-6{fill:#e27525;stroke:#e27525;}.cls-7{fill:#f5841f;stroke:#f5841f;}</style>
  </defs>
  <path class="cls-1" d="M482.09,30.8,272.32,161.31l38.81-91.79Z"/>
  <path class="cls-2" d="M25.74,30.8,233.86,162.67l-40.16-92.79Z"/>
  <path class="cls-2" d="M410.95,343.36,358.83,421.7l113.95,31.4L500,345.06Z"/>
  <path class="cls-2" d="M7.91,345.06l27.23,108,113.67-31.4L96.69,343.36Z"/>
  <path class="cls-2" d="M90.9,168.93,54.76,206.59l108.81,5L158.14,127Z"/>
  <path class="cls-2" d="M416.93,168.93l-68.24-43.3-4.07,86.61,108.53-5Z"/>
  <path class="cls-2" d="M148.91,421.7,229.56,390l-69.27-54.12Z"/>
  <path class="cls-2" d="M358.83,421.7l-11.38-85.82L278.18,390Z"/>
  <path class="cls-3" d="M229.56,390l70.63-34.15-6.07-47.45Z"/>
  <path class="cls-3" d="M207.64,308.4l-6.07,47.45L272.2,390Z"/>
  <path class="cls-4" d="M231.2,292.07l-65.1-19.11,46-21.1Z"/>
  <path class="cls-4" d="M276.63,292.07l19.11-40.21,46,21.1Z"/>
  <path class="cls-5" d="M148.91,421.7l11.38-68.24-54.12.73Z"/>
  <path class="cls-5" d="M347.45,353.46l11.38,68.24,42.74-67.51Z"/>
  <path class="cls-6" d="M393.45,286.73l-108.53,5,10.1,61.44,19.11-40.21,46,21.1Z"/>
  <path class="cls-6" d="M166.11,334.06l46-21.1,19.11,40.21,10.1-61.44-108.81-5Z"/>
  <path class="cls-7" d="M393.45,286.73,359.3,187.31l-36.14,37.66Z"/>
  <path class="cls-7" d="M166.11,334.06,132.41,224.24,96.27,186.58Z"/>
  <path class="cls-7" d="M272.32,161.31l3.34-92.43-45.35-41.28Z"/>
  <path class="cls-7" d="M233.86,162.67l42-133.71L231.2,70.24Z"/>
</svg> 